<svg xmlns="http://www.w3.org/2000/svg" viewBox="0 0 1800 320" role="img" aria-labelledby="title desc">
  <title id="title">Spillorama logo</title>
  <desc id="desc">Tekstlogo SPILLORAMA med roulettehjul og gronn kløver i O-en.</desc>
  <rect width="1800" height="320" fill="none" />

  <text x="10" y="250" font-family="Arial Black, Arial, sans-serif" font-size="250" font-weight="900" letter-spacing="7" fill="#050607">SPILL</text>

  <g transform="translate(900 160)">
    <circle r="152" fill="#050607" />
    <circle r="132" fill="#ffffff" />
    <circle r="106" fill="#050607" />
    <circle r="80" fill="#ffffff" />

    <g fill="#eb3a32">
      <rect x="-12" y="-124" width="24" height="34" rx="3" transform="rotate(18)" />
      <rect x="-12" y="-124" width="24" height="34" rx="3" transform="rotate(54)" />
      <rect x="-12" y="-124" width="24" height="34" rx="3" transform="rotate(90)" />
      <rect x="-12" y="-124" width="24" height="34" rx="3" transform="rotate(126)" />
      <rect x="-12" y="-124" width="24" height="34" rx="3" transform="rotate(162)" />
      <rect x="-12" y="-124" width="24" height="34" rx="3" transform="rotate(198)" />
      <rect x="-12" y="-124" width="24" height="34" rx="3" transform="rotate(234)" />
      <rect x="-12" y="-124" width="24" height="34" rx="3" transform="rotate(270)" />
      <rect x="-12" y="-124" width="24" height="34" rx="3" transform="rotate(306)" />
      <rect x="-12" y="-124" width="24" height="34" rx="3" transform="rotate(342)" />
    </g>

    <g fill="#050607">
      <rect x="-12" y="-124" width="24" height="34" rx="3" transform="rotate(0)" />
      <rect x="-12" y="-124" width="24" height="34" rx="3" transform="rotate(36)" />
      <rect x="-12" y="-124" width="24" height="34" rx="3" transform="rotate(72)" />
      <rect x="-12" y="-124" width="24" height="34" rx="3" transform="rotate(108)" />
      <rect x="-12" y="-124" width="24" height="34" rx="3" transform="rotate(144)" />
      <rect x="-12" y="-124" width="24" height="34" rx="3" transform="rotate(180)" />
      <rect x="-12" y="-124" width="24" height="34" rx="3" transform="rotate(216)" />
      <rect x="-12" y="-124" width="24" height="34" rx="3" transform="rotate(252)" />
      <rect x="-12" y="-124" width="24" height="34" rx="3" transform="rotate(288)" />
      <rect x="-12" y="-124" width="24" height="34" rx="3" transform="rotate(324)" />
    </g>

    <g fill="#2faa48">
      <circle cx="-26" cy="-22" r="20" />
      <circle cx="20" cy="-16" r="20" />
      <circle cx="-18" cy="18" r="20" />
      <circle cx="28" cy="16" r="20" />
      <rect x="-4" y="-8" width="8" height="46" rx="4" />
      <path d="M 0 36 C 18 42 30 53 36 69 C 18 65 4 57 -3 45 Z" />
    </g>
  </g>

  <text x="1025" y="250" font-family="Arial Black, Arial, sans-serif" font-size="250" font-weight="900" letter-spacing="7" fill="#050607">RAMA</text>
</svg>
